<svg version="1.1" viewBox="0 0 179 102" xmlns="http://www.w3.org/2000/svg" xmlns:xlink="http://www.w3.org/1999/xlink">
 <defs>
  <linearGradient id="a" x1="376" x2="376" y1="491" y2="602" gradientUnits="userSpaceOnUse">
   <stop stop-color="#f2f2f2" offset="0"/>
   <stop stop-color="#f2f2f2" stop-opacity="0" offset="1"/>
  </linearGradient>
 </defs>
 <g transform="translate(-286 -481)">
  <path d="m379 481c-16.4 0-30.3 7.36-35.4 17.6h-0.358c-17.8 0-32.2 12.6-32.2 28.2 0 0.31 0.0111 0.619 0.0222 0.926-14.4 3.05-25.1 13.3-25.1 25.5 0 14.6 15.2 26.5 34 26.5 8.13 0 15.6-2.22 21.4-5.93 7.41 5.86 17.5 9.46 28.6 9.46 6.56 0 12.8-1.26 18.3-3.49 4.51 2.2 9.92 3.49 15.7 3.49 14.8 0 27-8.32 28.5-19 2.18-1.19 4.22-2.58 6.08-4.13 0.992 0.108 1.99 0.176 3.02 0.176 12.8 0 23.3-8.69 23.3-19.4 0-9.06-7.43-16.7-17.5-18.8-5.45-11.1-17.4-19-31.5-19.9-3.42-12.1-18.6-21.3-36.9-21.3z" fill="url(#a)"/>
 </g>
</svg>
